<?xml version="1.0" encoding="UTF-8" standalone="no"?>

<svg 
   role="img"
   aria-labelledby="add-icon-title add-icon-desc"
   xmlns="http://www.w3.org/2000/svg"
   viewBox="0 0 170 170">
  <title id="add-icon-title">Add Entry</title>
  <desc id="add-icon-desc">A plus symbol within a circle.</desc>
  <g
     transform="translate(0,-882.36216)">
    <path
       style="fill:#ffffff;"
       d="m 39.24875,921.61349 a 64.700236,64.700236 0 0 0 0,91.49861 64.700236,64.700236 0 0 0 91.5012,0 64.700236,64.700236 0 0 0 0,-91.50121 64.700236,64.700236 0 0 0 -91.4985,0 z m 9.5097,43.0428 0,0 c 0.7555,-0.7771 1.8075,-1.2686 2.9659,-1.2775 l 29.0618,-0.2222 0.2057,-28.9509 c 0.015,-2.321 1.9527,-4.2532 4.2687,-4.2686 2.3196,-0.017 4.2297,1.8959 4.2131,4.2131 l -0.2055,28.9342 28.823,-0.2222 c 2.318,-0.018 4.2871,1.8964 4.3357,4.2128 0.049,2.3172 -1.8432,4.2593 -4.1605,4.277 l -29.0563,0.222 -0.2055,28.95061 c -0.015,2.3198 -1.9542,4.258 -4.2715,4.2717 -2.3197,0.017 -4.2354,-1.9012 -4.2188,-4.2186 l 0.2056,-28.93421 -28.8202,0.225 c -2.3182,0.018 -4.2871,-1.8964 -4.3358,-4.2128 -0.024,-1.1584 0.4394,-2.2161 1.1917,-2.9966 z"/>
  </g>
</svg>