<?xml version="1.0" encoding="UTF-8" standalone="no"?>

<svg 
   role="img"
   aria-labelledby="back-icon-title back-icon-desc"
   xmlns="http://www.w3.org/2000/svg"
   viewBox="0 0 170 170">
  <title id="back-icon-title">Back</title>
  <desc id="back-icon-desc">An arrow icon, pointing left.</desc>
  <g
     transform="translate(0,-882.36216)">
    <path
       style="fill:#ffffff;"
       d="m 99.17553,925.19136 c -1.373,-2e-5 -2.7443,0.52125 -3.775405,1.56445 l -36.3574,36.7832 0,0.002 c -0.2572,0.26013 -0.4828,0.54205 -0.6758,0.83984 -5e-4,7.6e-4 0,10e-4 0,0.002 -0.1928,0.2979 -0.3517,0.6127 -0.4804,0.9375 -4e-4,8e-4 0,0.001 0,0.002 -0.064,0.16214 -0.1198,0.3273 -0.168,0.49414 -0.2909,1.00681 -0.2909,2.08498 0,3.09179 0.048,0.16675 0.1039,0.33209 0.168,0.49414 3e-4,7.7e-4 0,10e-4 0,0.002 0.1287,0.3248 0.2876,0.6396 0.4804,0.9375 5e-4,7.5e-4 0,0.001 0,0.002 0.096,0.14852 0.2003,0.29377 0.3125,0.43359 6e-4,7.2e-4 0,10e-4 0,0.002 0.1123,0.13977 0.2331,0.27455 0.3614,0.40429 6e-4,6.6e-4 0,10e-4 0,0.002 l 36.3574,36.7833 c 2.062205,2.0864 5.492505,2.084 7.554695,0 2.0623,-2.0864 2.0623,-5.5562 0,-7.6426 L 70.370925,967.36353 102.95292,934.40259 c 2.0623,-2.0864 2.0609,-5.55813 0,-7.64453 l 0,0 c -1.0312,-1.0432 -2.4044,-1.56444 -3.7774,-1.56445 z"/>
  </g>
</svg>