<?xml version="1.0" encoding="UTF-8" standalone="no"?>

<svg 
   role="img"
   aria-labelledby="search-icon-title search-icon-desc"
   xmlns="http://www.w3.org/2000/svg"
   viewBox="0 0 170 170">
  <title id="search-icon-title">Search</title>
  <desc id="search-icon-desc">A mangifying glass symbol.</desc>
  <g
   transform="translate(0,-882.36216)">
   <path
      style="fill:#ffffff;"
      d="m 79.462091,932.56217 c -7.4729,0 -14.9446,2.8356 -20.6172,8.5078 -11.3456,11.3456 -11.3442,29.8927 0,41.23828 10.075,10.0749 25.8234,11.1953 37.1699,3.3769 l 18.871099,19.23625 c 1.6143,1.6456 4.3308,1.6572 5.9551,0.021 l 1.5996,-1.6113 c 1.6242,-1.6358 1.6316,-4.38945 0.018,-6.03515 l -18.873,-19.2382 c 7.6804,-11.33258 6.5179,-26.96758 -3.5039,-36.98828 -5.672799,-5.6728 -13.145899,-8.5078 -20.619099,-8.5078 z m 0,9.9355 c 4.8931,0 9.7868,1.8825 13.5488,5.6445 7.524199,7.5242 7.522699,19.5697 0,27.09378 -7.5241,7.5241 -19.5695,7.5241 -27.0937,0 -7.5241,-7.52408 -7.5255,-19.56958 0,-27.09378 l 0,0 c 3.762,-3.762 8.6557,-5.6445 13.5488,-5.6445 z"/>
  </g>
</svg>